<?xml version="1.0" encoding="utf-8"?>
<!-- Generator: Adobe Illustrator 26.1.0, SVG Export Plug-In . SVG Version: 6.00 Build 0)  -->
<svg version="1.1" id="Layer_1" xmlns="http://www.w3.org/2000/svg" xmlns:xlink="http://www.w3.org/1999/xlink" x="0px" y="0px"
	 width="24px" height="24px" viewBox="0 0 24 24" style="enable-background:new 0 0 24 24;" xml:space="preserve">
<style type="text/css">
	.st0{opacity:7.000000e-02;enable-background:new    ;}
	.st1{fill:#FFFFFF;}
	.st2{fill:#142688;}
</style>
<path class="st0" d="M22.1,4.4H1.9C0.8,4.4,0,5.2,0,6.3v11.4c0,1.1,0.9,1.9,1.9,1.9h20.2c1.1,0,1.9-0.8,1.9-1.9V6.3
	C24,5.2,23.1,4.4,22.1,4.4z"/>
<path class="st1" d="M22.1,5.1c0.7,0,1.3,0.6,1.3,1.3v11.4c0,0.7-0.6,1.3-1.3,1.3H1.9c-0.7,0-1.3-0.6-1.3-1.3V6.3
	c0-0.7,0.6-1.3,1.3-1.3H22.1"/>
<path class="st2" d="M17.9,10.8h-0.2c-0.3,0.6-0.4,0.9-0.6,1.9h1.2C18.1,11.7,18.1,11.3,17.9,10.8z M19.7,14.5h-1.1
	c-0.1,0-0.1,0-0.1-0.1l-0.1-0.6l-0.1-0.1h-1.5c-0.1,0-0.1,0-0.1,0.1l-0.2,0.6c0,0.1-0.1,0.1-0.1,0.1h-1.3l0.1-0.3l1.8-4.3
	c0-0.3,0.2-0.4,0.5-0.4h0.9c0.1,0,0.1,0,0.1,0.1l0.9,4.1c0.1,0.3,0.1,0.4,0.1,0.7C19.7,14.5,19.7,14.5,19.7,14.5z M11.2,14.3
	l0.3-1.1c0.1,0,0.1,0.1,0.1,0.1c0.4,0.2,0.9,0.3,1.3,0.3c0.1,0,0.3-0.1,0.4-0.1c0.3-0.1,0.3-0.4,0.1-0.7c-0.1-0.1-0.3-0.2-0.5-0.3
	c-0.3-0.1-0.5-0.3-0.7-0.4c-0.8-0.6-0.5-1.5-0.1-2c0.4-0.3,0.6-0.5,1.1-0.5c0.8,0,1.6,0,2,0.1h0.1c-0.1,0.4-0.1,0.7-0.3,1.1
	c-0.3-0.1-0.6-0.3-0.9-0.3c-0.2,0-0.4,0-0.6,0.1c-0.1,0-0.2,0.1-0.3,0.1c-0.1,0.1-0.1,0.3,0,0.4l0.3,0.3c0.3,0.1,0.5,0.3,0.7,0.4
	c0.3,0.2,0.6,0.5,0.7,0.9c0.1,0.6-0.1,1.1-0.6,1.5c-0.3,0.3-0.4,0.4-0.9,0.4c-0.9,0-1.6,0.1-2.1-0.1C11.3,14.4,11.3,14.4,11.2,14.3z
	 M9,14.5c0.1-0.4,0.1-0.4,0.1-0.6c0.3-1.4,0.6-2.8,0.9-4.2c0.1-0.1,0.1-0.2,0.2-0.2h1.1c-0.1,0.8-0.3,1.3-0.4,2
	c-0.2,0.9-0.4,1.9-0.6,2.8c0,0.1-0.1,0.1-0.2,0.1 M3.2,9.6c0-0.1,0.1-0.1,0.2-0.1h2.1c0.3,0,0.6,0.2,0.6,0.5l0.6,2.8
	c0,0.1,0,0.1,0.1,0.1c0-0.1,0.1-0.1,0.1-0.1l1.3-3.2c-0.1-0.1,0-0.1,0.1-0.1h1.3c0,0.1,0,0.1-0.1,0.1l-2,4.6
	c-0.1,0.1-0.1,0.2-0.1,0.3c-0.1,0.1-0.2,0-0.3,0H6.1c-0.1,0-0.1,0-0.1-0.1l-1-3.9c-0.1-0.1-0.3-0.3-0.6-0.4C4,9.9,3.3,9.7,3.2,9.7
	L3.2,9.6z"/>
</svg>
