<?xml version="1.0" standalone="no"?>
<!DOCTYPE svg PUBLIC "-//W3C//DTD SVG 20010904//EN"
 "http://www.w3.org/TR/2001/REC-SVG-20010904/DTD/svg10.dtd">
<svg version="1.0" xmlns="http://www.w3.org/2000/svg"
 width="700.000000pt" height="700.000000pt" viewBox="0 0 700.000000 700.000000"
 preserveAspectRatio="xMidYMid meet">
<metadata>
Created by potrace 1.14, written by Peter Selinger 2001-2017
</metadata>
<g transform="translate(0.000000,700.000000) scale(0.100000,-0.100000)"
fill="#000000" stroke="none">
<path d="M3451 6530 c-18 -19 -33 -45 -36 -68 -13 -82 -30 -127 -80 -211 -149
-251 -460 -600 -723 -809 -411 -327 -1016 -615 -1532 -731 -180 -40 -260 -66
-318 -101 -29 -18 -32 -23 -20 -37 30 -37 150 -76 403 -134 406 -91 994 -334
1046 -431 11 -20 6 -28 -50 -80 -75 -70 -313 -229 -439 -292 -52 -27 -117 -51
-148 -56 -80 -13 -94 -19 -103 -43 -10 -27 9 -67 44 -95 14 -12 99 -57 188
-101 255 -126 478 -306 718 -579 249 -283 456 -591 633 -942 198 -391 300
-695 365 -1089 31 -187 65 -291 94 -291 38 0 86 130 164 445 97 394 181 634
319 920 219 454 584 959 882 1220 154 136 264 209 451 301 287 142 341 222
171 252 -41 8 -98 30 -169 68 -144 76 -377 231 -448 299 l-58 55 41 38 c113
102 617 305 1028 413 188 49 317 96 357 128 l22 17 -28 22 c-36 28 -174 72
-355 112 -415 93 -956 340 -1340 613 -270 192 -559 484 -765 772 -108 151
-156 249 -170 347 -3 21 -17 51 -31 68 -34 40 -72 40 -113 0z m88 -571 c12
-27 55 -148 95 -267 92 -272 136 -381 246 -607 150 -306 295 -536 545 -861
l137 -179 -34 -29 c-195 -173 -509 -473 -615 -588 -173 -188 -223 -251 -323
-402 -45 -69 -86 -126 -91 -126 -4 0 -30 37 -58 83 -77 126 -223 289 -623 693
l-368 371 136 179 c75 98 169 226 209 284 171 247 337 558 447 840 32 80 103
261 159 403 55 141 104 257 109 257 4 0 17 -23 29 -51z m-219 -26 c0 -32 -38
-176 -79 -300 -120 -366 -382 -865 -619 -1178 -89 -118 -275 -335 -286 -335
-7 0 -118 48 -247 106 -392 177 -652 281 -821 328 -98 28 -84 39 177 131 352
125 630 262 910 450 193 129 318 232 551 451 239 224 395 364 406 364 4 0 8
-8 8 -17z m458 -70 c42 -38 155 -144 251 -237 482 -463 932 -737 1561 -951
107 -36 206 -73 219 -82 22 -14 23 -17 8 -28 -10 -7 -61 -24 -114 -39 -133
-37 -274 -94 -663 -268 -184 -83 -338 -152 -341 -154 -10 -5 -243 277 -337
408 -170 238 -389 637 -502 918 -43 106 -170 472 -170 490 0 18 13 10 88 -57z
m1032 -2031 c245 -167 430 -316 430 -348 0 -16 -78 -76 -225 -174 -150 -100
-229 -166 -376 -317 -228 -233 -410 -472 -601 -787 -101 -167 -233 -435 -293
-596 -86 -230 -136 -330 -165 -330 -21 0 -33 76 -38 240 -5 173 14 1156 24
1237 4 33 34 84 141 240 157 229 275 374 440 540 123 123 481 414 498 405 6
-3 80 -53 165 -110z m-2356 13 c148 -89 322 -239 537 -462 278 -289 379 -465
429 -746 31 -177 40 -331 47 -802 5 -431 0 -542 -27 -569 -25 -25 -67 50 -170
311 -194 485 -481 945 -834 1336 -125 138 -250 247 -400 349 -65 44 -148 109
-184 143 l-66 62 23 31 c56 80 402 332 506 370 51 18 79 13 139 -23z"/>
</g>
</svg>
