<?xml version="1.0" encoding="utf-8"?>
<!-- Generator: Adobe Illustrator 26.1.0, SVG Export Plug-In . SVG Version: 6.00 Build 0)  -->
<svg version="1.1" id="Layer_1" xmlns="http://www.w3.org/2000/svg" xmlns:xlink="http://www.w3.org/1999/xlink" x="0px" y="0px"
	 width="24px" height="24px" viewBox="0 0 24 24" style="enable-background:new 0 0 24 24;" xml:space="preserve">
<style type="text/css">
	.st0{opacity:7.000000e-02;enable-background:new    ;}
	.st1{fill:#006FCF;}
	.st2{fill:#FFFFFF;}
</style>
<g>
	<path class="st0" d="M22.1,4.4H1.9C0.8,4.4,0,5.2,0,6.3v11.4c0,1.1,0.9,1.9,1.9,1.9h20.2c1.1,0,1.9-0.8,1.9-1.9V6.3
		C24,5.2,23.1,4.4,22.1,4.4z"/>
	<path class="st1" d="M22.1,5.1c0.7,0,1.3,0.6,1.3,1.3v11.4c0,0.7-0.6,1.3-1.3,1.3H1.9c-0.7,0-1.3-0.6-1.3-1.3V6.3
		c0-0.7,0.6-1.3,1.3-1.3H22.1"/>
	<path class="st2" d="M5.7,10.9l0.5,1.2h-1L5.7,10.9z M15.8,11h-1.9v0.5h1.8v0.8h-1.8v0.6h1.9v0.5l1.3-1.4l-1.3-1.5L15.8,11L15.8,11
		z M6.9,9.5h2.5l0.6,1.2l0.5-1.2h6.5l0.7,0.8l0.7-0.8h3l-2.2,2.4l2.2,2.4h-3.1l-0.7-0.8L17,14.3H6.3L6,13.6H5.3L5,14.3H2.5l2.1-4.9
		h2.2L6.9,9.5z M12.4,10.2H11L10,12.4l-1-2.2H7.6v3l-1.3-3H5.1l-1.5,3.5h1l0.3-0.8h1.6l0.3,0.8h1.7v-2.5l1.1,2.5h0.8l1.1-2.5v2.5
		h0.9L12.4,10.2L12.4,10.2z M18.3,11.9l1.6-1.7h-1.2l-1,1.1l-1-1.1H13v3.5h3.7l1-1.1l1,1.1h1.2L18.3,11.9L18.3,11.9z"/>
</g>
</svg>
