<?xml version="1.0" encoding="utf-8"?>
<!-- Generator: Adobe Illustrator 26.1.0, SVG Export Plug-In . SVG Version: 6.00 Build 0)  -->
<svg version="1.1" id="Layer_1" xmlns="http://www.w3.org/2000/svg" xmlns:xlink="http://www.w3.org/1999/xlink" x="0px" y="0px"
	 width="24px" height="24px" viewBox="0 0 24 24" style="enable-background:new 0 0 24 24;" xml:space="preserve">
<style type="text/css">
	.st0{opacity:7.000000e-02;enable-background:new    ;}
	.st1{fill:#FFFFFF;}
	.st2{fill:#3086C8;}
</style>
<path class="st0" d="M22.1,4.4H1.9C0.8,4.4,0,5.2,0,6.3v11.4c0,1.1,0.9,1.9,1.9,1.9h20.2c1.1,0,1.9-0.8,1.9-1.9V6.3
	C24,5.2,23.1,4.4,22.1,4.4z"/>
<path class="st1" d="M22.1,5.1c0.7,0,1.3,0.6,1.3,1.3v11.4c0,0.7-0.6,1.3-1.3,1.3H1.9c-0.7,0-1.3-0.6-1.3-1.3V6.3
	c0-0.7,0.6-1.3,1.3-1.3H22.1"/>
<path class="st2" d="M7.6,12v2.3c0,0.2-0.1,0.2-0.3,0.1c-1.2-0.5-1.9-2.1-1.5-3.4c0.3-0.7,0.8-1.3,1.5-1.5c0.3-0.1,0.3-0.1,0.3,0.1
	V12z M8.8,12V9.7c0-0.2,0-0.2,0.2-0.1c1.3,0.5,2,2.1,1.5,3.4c-0.3,0.7-0.8,1.3-1.5,1.5c-0.3,0.1-0.3,0.1-0.3-0.1
	C8.8,14.3,8.8,12,8.8,12z M13.4,7.6H8.2c2.4,0,4.3,2,4.3,4.4s-1.9,4.4-4.3,4.4h5.2c2.4,0,4.3-2,4.3-4.4S15.8,7.6,13.4,7.6z"/>
</svg>
