<?xml version="1.0" encoding="utf-8"?>
<!-- Generator: Adobe Illustrator 26.1.0, SVG Export Plug-In . SVG Version: 6.00 Build 0)  -->
<svg version="1.1" id="Layer_1" xmlns="http://www.w3.org/2000/svg" xmlns:xlink="http://www.w3.org/1999/xlink" x="0px" y="0px"
	 width="24px" height="24px" viewBox="0 0 24 24" style="enable-background:new 0 0 24 24;" xml:space="preserve">
<style type="text/css">
	.st0{opacity:7.000000e-02;enable-background:new    ;}
	.st1{fill:#FFFFFF;}
	.st2{fill:#F48120;}
	.st3{fill:#231F20;}
	.st4{fill:url(#XMLID_00000165924759624946634460000011883083130486286487_);}
	.st5{opacity:0.65;fill:url(#XMLID_00000049213555590807877870000016084985970606608554_);enable-background:new    ;}
</style>
<path class="st0" d="M22.1,4.4H1.9C0.8,4.4,0,5.2,0,6.3v11.4c0,1.1,0.9,1.9,1.9,1.9h20.2c1.1,0,1.9-0.8,1.9-1.9V6.3
	C24,5.2,23.1,4.4,22.1,4.4z"/>
<path class="st1" d="M22.1,5.1c0.7,0,1.3,0.6,1.3,1.3v11.4c0,0.7-0.6,1.3-1.3,1.3H1.9c-0.7,0-1.3-0.6-1.3-1.3V6.3
	c0-0.7,0.6-1.3,1.3-1.3H22.1z"/>
<path class="st2" d="M8.3,18.9h13.8c0.7,0,1.3-0.6,1.3-1.3v-4.5C21.9,14.1,16.7,17.1,8.3,18.9z"/>
<path class="st3" d="M2.1,9h-1v3.5h1c0.5,0,0.9-0.1,1.2-0.4C3.7,11.8,4,11.3,4,10.8C4,9.7,3.2,9,2.1,9z M2.9,11.6
	c-0.2,0.2-0.5,0.3-0.9,0.3H1.8V9.6H2c0.4,0,0.7,0.1,0.9,0.3c0.2,0.2,0.4,0.5,0.4,0.9C3.3,11.1,3.1,11.4,2.9,11.6z M4.3,9H5v3.5H4.3
	V9z M6.6,10.4c-0.4-0.2-0.5-0.3-0.5-0.4c0-0.2,0.2-0.4,0.5-0.4c0.2,0,0.4,0.1,0.5,0.3l0.4-0.5C7.2,9.1,6.9,9,6.5,9
	c-0.6,0-1.1,0.4-1.1,1c0,0.5,0.2,0.7,0.9,1c0.3,0.1,0.4,0.2,0.5,0.2c0.1,0.1,0.2,0.2,0.2,0.4c0,0.3-0.2,0.5-0.5,0.5
	c-0.3,0-0.6-0.2-0.7-0.5l-0.4,0.4c0.3,0.5,0.7,0.7,1.2,0.7c0.7,0,1.2-0.5,1.2-1.1C7.6,10.9,7.4,10.6,6.6,10.4z M7.8,10.8
	c0,1,0.8,1.8,1.8,1.8c0.3,0,0.5-0.1,0.8-0.2v-0.8C10.2,11.9,10,12,9.7,12c-0.7,0-1.2-0.5-1.2-1.2c0-0.7,0.5-1.2,1.1-1.2
	c0.3,0,0.6,0.1,0.8,0.4V9.2C10.2,9,10,9,9.7,9C8.7,9,7.8,9.8,7.8,10.8z M15.9,11.4L15,9h-0.7l1.5,3.6h0.4L17.6,9h-0.7L15.9,11.4z
	 M17.9,12.5h1.9v-0.6h-1.2V11h1.2v-0.6h-1.2V9.6h1.2V9h-1.9V12.5z M22.5,10.1c0-0.7-0.4-1-1.2-1h-1v3.5h0.7v-1.4H21l0.9,1.4h0.8
	L21.7,11C22.2,10.9,22.5,10.6,22.5,10.1z M21.1,10.6h-0.2V9.6h0.2c0.4,0,0.7,0.2,0.7,0.5C21.8,10.4,21.5,10.6,21.1,10.6z M22.9,9.2
	c0-0.1,0-0.1-0.1-0.1h-0.1v0.3h0.1V9.3l0.1,0.1h0.1L22.9,9.2C22.9,9.2,22.9,9.2,22.9,9.2z M22.8,9.2L22.8,9.2L22.8,9.2L22.8,9.2
	C22.8,9.1,22.8,9.1,22.8,9.2C22.8,9.2,22.8,9.2,22.8,9.2z M22.8,9c-0.1,0-0.3,0.1-0.3,0.3s0.1,0.3,0.3,0.3c0.1,0,0.3-0.1,0.3-0.3
	S22.9,9,22.8,9z M22.8,9.4c-0.1,0-0.2-0.1-0.2-0.2c0-0.1,0.1-0.2,0.2-0.2C22.9,9,23,9.1,23,9.2C23,9.3,22.9,9.4,22.8,9.4z"/>
<linearGradient id="XMLID_00000108994753131393551180000005663719067662847148_" gradientUnits="userSpaceOnUse" x1="13.5278" y1="-566.2639" x2="12.2479" y2="-564.2599" gradientTransform="matrix(1 0 0 -1 0 -554)">
	<stop  offset="0" style="stop-color:#F89F20"/>
	<stop  offset="0.2502" style="stop-color:#F79A20"/>
	<stop  offset="0.5331" style="stop-color:#F68D20"/>
	<stop  offset="0.6196" style="stop-color:#F58720"/>
	<stop  offset="0.7232" style="stop-color:#F48120"/>
	<stop  offset="1" style="stop-color:#F37521"/>
</linearGradient>
<circle id="XMLID_415_" style="fill:url(#XMLID_00000108994753131393551180000005663719067662847148_);" cx="12.6" cy="10.8" r="1.9"/>
<linearGradient id="XMLID_00000081625202114233380530000006733147556943801995_" gradientUnits="userSpaceOnUse" x1="13.3258" y1="-566.2369" x2="11.4551" y2="-562.5806" gradientTransform="matrix(1 0 0 -1 0 -554)">
	<stop  offset="0" style="stop-color:#F58720"/>
	<stop  offset="0.3587" style="stop-color:#E16F27"/>
	<stop  offset="0.703" style="stop-color:#D4602C"/>
	<stop  offset="0.9816" style="stop-color:#D05B2E"/>
</linearGradient>
<circle id="XMLID_414_" style="opacity:0.65;fill:url(#XMLID_00000081625202114233380530000006733147556943801995_);enable-background:new    ;" cx="12.6" cy="10.8" r="1.9"/>
</svg>
