<?xml version="1.0" encoding="utf-8"?>
<!-- Generator: Adobe Illustrator 26.1.0, SVG Export Plug-In . SVG Version: 6.00 Build 0)  -->
<svg version="1.1" id="Layer_1" xmlns="http://www.w3.org/2000/svg" xmlns:xlink="http://www.w3.org/1999/xlink" x="0px" y="0px"
	 width="24px" height="24px" viewBox="0 0 24 24" style="enable-background:new 0 0 24 24;" xml:space="preserve">
<style type="text/css">
	.st0{opacity:7.000000e-02;enable-background:new    ;}
	.st1{fill:#FFFFFF;}
	.st2{fill:#EB001B;}
	.st3{fill:#F79E1B;}
	.st4{fill:#FF5F00;}
</style>
<path class="st0" d="M22.1,4.4H1.9C0.8,4.4,0,5.2,0,6.3v11.4c0,1.1,0.9,1.9,1.9,1.9h20.2c1.1,0,1.9-0.8,1.9-1.9V6.3
	C24,5.2,23.1,4.4,22.1,4.4z"/>
<path class="st1" d="M22.1,5.1c0.7,0,1.3,0.6,1.3,1.3v11.4c0,0.7-0.6,1.3-1.3,1.3H1.9c-0.7,0-1.3-0.6-1.3-1.3V6.3
	c0-0.7,0.6-1.3,1.3-1.3H22.1"/>
<circle class="st2" cx="9.5" cy="12" r="4.4"/>
<circle class="st3" cx="14.5" cy="12" r="4.4"/>
<path class="st4" d="M13.9,12c0-1.5-0.8-2.8-1.9-3.6c-1.1,0.8-1.9,2.1-1.9,3.6s0.8,2.8,1.9,3.6C13.1,14.8,13.9,13.5,13.9,12z"/>
</svg>
