<?xml version="1.0" encoding="utf-8"?>
<!-- Generator: Adobe Illustrator 26.1.0, SVG Export Plug-In . SVG Version: 6.00 Build 0)  -->
<svg version="1.1" id="Layer_1" xmlns="http://www.w3.org/2000/svg" xmlns:xlink="http://www.w3.org/1999/xlink" x="0px" y="0px"
	 width="24px" height="24px" viewBox="0 0 24 24" style="enable-background:new 0 0 24 24;" xml:space="preserve">
<style type="text/css">
	.st0{opacity:7.000000e-02;enable-background:new    ;}
	.st1{fill:#FFFFFF;}
	.st2{fill:#003087;}
	.st3{fill:#3086C8;}
	.st4{fill:#012169;}
</style>
<path class="st0" d="M22.1,4.4H1.9C0.8,4.4,0,5.2,0,6.3v11.4c0,1.1,0.9,1.9,1.9,1.9h20.2c1.1,0,1.9-0.8,1.9-1.9V6.3
	C24,5.2,23.1,4.4,22.1,4.4z"/>
<path class="st1" d="M22.1,5c0.7,0,1.3,0.6,1.3,1.3v11.4c0,0.7-0.6,1.3-1.3,1.3H1.9c-0.7,0-1.3-0.6-1.3-1.3V6.3C0.6,5.6,1.2,5,1.9,5
	H22.1"/>
<path class="st2" d="M15.1,9.6c0.1-0.6,0-1.1-0.4-1.5c-0.4-0.4-1.1-0.6-2-0.6h-2.6c-0.2,0-0.3,0.1-0.4,0.3l-0.9,6.5
	c0,0.1,0.1,0.3,0.2,0.3h1.7l0.3-2.2l1.1-1.4L15.1,9.6z"/>
<path class="st3" d="M15.1,9.6L15,9.8c-0.3,1.8-1.4,2.4-2.9,2.4h-0.7c-0.2,0-0.3,0.1-0.4,0.3L10.6,15l-0.1,0.6
	c0,0.1,0.1,0.3,0.2,0.3H12c0.2,0,0.3-0.1,0.3-0.3v-0.1l0.3-1.5v-0.1c0-0.1,0.2-0.3,0.3-0.3h0.2c1.3,0,2.3-0.5,2.6-2
	c0.1-0.6,0.1-1.1-0.3-1.5C15.3,9.8,15.2,9.7,15.1,9.6z"/>
<path class="st4" d="M14.7,9.5c-0.1-0.1-0.1-0.1-0.2-0.1c-0.1,0-0.1,0-0.2-0.1c-0.2-0.1-0.4-0.1-0.7-0.1h-1.9c-0.1,0-0.1,0-0.1,0.1
	c-0.1,0.1-0.2,0.1-0.2,0.3L11,12.4v0.1c0-0.2,0.2-0.3,0.4-0.3h0.8c1.6,0,2.6-0.6,2.9-2.4V9.6C15,9.6,14.9,9.5,14.7,9.5
	C14.8,9.5,14.7,9.5,14.7,9.5z"/>
</svg>
